<?xml version="1.0" encoding="UTF-8" standalone="no"?><svg xmlns="http://www.w3.org/2000/svg" xmlns:xlink="http://www.w3.org/1999/xlink" contentScriptType="application/ecmascript" contentStyleType="text/css" height="247px" preserveAspectRatio="none" style="width:196px;height:247px;" version="1.1" viewBox="0 0 196 247" width="196px" zoomAndPan="magnify"><defs><filter height="300%" id="f1n1n0yoxzvtix" width="300%" x="-1" y="-1"><feGaussianBlur result="blurOut" stdDeviation="2.0"/><feColorMatrix in="blurOut" result="blurOut2" type="matrix" values="0 0 0 0 0 0 0 0 0 0 0 0 0 0 0 0 0 0 .4 0"/><feOffset dx="4.0" dy="4.0" in="blurOut2" result="blurOut3"/><feBlend in="SourceGraphic" in2="blurOut3" mode="normal"/></filter></defs><g><!--entity Player--><ellipse cx="26" cy="90" fill="#FEFECE" filter="url(#f1n1n0yoxzvtix)" rx="8" ry="8" style="stroke: #A80036; stroke-width: 2.0;"/><path d="M26,98 L26,125 M13,106 L39,106 M26,125 L13,140 M26,125 L39,140 " fill="none" filter="url(#f1n1n0yoxzvtix)" style="stroke: #A80036; stroke-width: 2.0;"/><text fill="#000000" font-family="sans-serif" font-size="14" lengthAdjust="spacingAndGlyphs" textLength="40" x="6" y="161.5332">Player</text><ellipse cx="146.2132" cy="23.4517" fill="#FEFECE" filter="url(#f1n1n0yoxzvtix)" rx="24.2132" ry="15.4517" style="stroke: #A80036; stroke-width: 1.5;"/><text fill="#000000" font-family="sans-serif" font-size="14" lengthAdjust="spacingAndGlyphs" textLength="30" x="131.2132" y="28.7564">Start</text><ellipse cx="146.0416" cy="89.4517" fill="#FEFECE" filter="url(#f1n1n0yoxzvtix)" rx="27.0416" ry="15.4517" style="stroke: #A80036; stroke-width: 1.5;"/><text fill="#000000" font-family="sans-serif" font-size="14" lengthAdjust="spacingAndGlyphs" textLength="34" x="129.0416" y="94.7564">Move</text><ellipse cx="146.1127" cy="155.4517" fill="#FEFECE" filter="url(#f1n1n0yoxzvtix)" rx="34.1127" ry="15.4517" style="stroke: #A80036; stroke-width: 1.5;"/><text fill="#000000" font-family="sans-serif" font-size="14" lengthAdjust="spacingAndGlyphs" textLength="44" x="124.1127" y="160.7564">Cancel</text><ellipse cx="145.7696" cy="221.4517" fill="#FEFECE" filter="url(#f1n1n0yoxzvtix)" rx="39.7696" ry="15.4517" style="stroke: #A80036; stroke-width: 1.5;"/><text fill="#000000" font-family="sans-serif" font-size="14" lengthAdjust="spacingAndGlyphs" textLength="52" x="119.7696" y="226.7564">Resume</text><!--link Player to Start--><path d="M46.2214,106.374 C68.4769,87.702 104.8675,57.171 126.717,38.84 " fill="none" id="Player-Start" style="stroke: #A80036; stroke-width: 1.0;"/><polygon fill="#A80036" points="130.62,35.564,121.1542,38.2839,126.7895,38.7775,126.2958,44.4128,130.62,35.564" style="stroke: #A80036; stroke-width: 1.0;"/><!--link Player to Move--><path d="M46.2214,117.125 C65.2055,111.815 94.4745,103.63 116.23,97.546 " fill="none" id="Player-Move" style="stroke: #A80036; stroke-width: 1.0;"/><polygon fill="#A80036" points="121.308,96.126,111.5635,94.6958,116.4925,97.4717,113.7166,102.4006,121.308,96.126" style="stroke: #A80036; stroke-width: 1.0;"/><!--link Player to Cancel--><path d="M46.2214,127.875 C63.8754,132.813 90.4236,140.2371 111.553,146.1461 " fill="none" id="Player-Cancel" style="stroke: #A80036; stroke-width: 1.0;"/><polygon fill="#A80036" points="116.522,147.5359,108.9325,141.259,111.7069,146.1888,106.7771,148.9632,116.522,147.5359" style="stroke: #A80036; stroke-width: 1.0;"/><!--link Player to Resume--><path d="M46.2214,138.6264 C67.6162,156.5763 102.0739,185.4857 124.118,203.9803 " fill="none" id="Player-Resume" style="stroke: #A80036; stroke-width: 1.0;"/><polygon fill="#A80036" points="128.084,207.3075,123.761,198.4581,124.2539,204.0935,118.6185,204.5863,128.084,207.3075" style="stroke: #A80036; stroke-width: 1.0;"/><!--
@startuml

left to right direction

actor Player
usecase Start
usecase Move
usecase Cancel
usecase Resume

Player - -> Start
Player - -> Move
Player - -> Cancel
Player - -> Resume

@enduml

PlantUML version 1.2019.05(Sat Apr 20 18:45:36 CEST 2019)
(GPL source distribution)
Java Runtime: OpenJDK Runtime Environment
JVM: OpenJDK 64-Bit Server VM
Java Version: 1.8.0_222-b10
Operating System: Windows 10
OS Version: 10.0
Default Encoding: windows-1252
Language: es
Country: ES
--></g></svg>