<?xml version="1.0" encoding="UTF-8" standalone="no"?><svg xmlns="http://www.w3.org/2000/svg" xmlns:xlink="http://www.w3.org/1999/xlink" contentScriptType="application/ecmascript" contentStyleType="text/css" height="606px" preserveAspectRatio="none" style="width:257px;height:606px;" version="1.1" viewBox="0 0 257 606" width="257px" zoomAndPan="magnify"><defs><filter height="300%" id="f11dxmpiwrc988" width="300%" x="-1" y="-1"><feGaussianBlur result="blurOut" stdDeviation="2.0"/><feColorMatrix in="blurOut" result="blurOut2" type="matrix" values="0 0 0 0 0 0 0 0 0 0 0 0 0 0 0 0 0 0 .4 0"/><feOffset dx="4.0" dy="4.0" in="blurOut2" result="blurOut3"/><feBlend in="SourceGraphic" in2="blurOut3" mode="normal"/></filter></defs><g><ellipse cx="187.5" cy="18" fill="#000000" filter="url(#f11dxmpiwrc988)" rx="10" ry="10" style="stroke: none; stroke-width: 1.0;"/><rect fill="#FEFECE" filter="url(#f11dxmpiwrc988)" height="50" rx="12.5" ry="12.5" style="stroke: #A80036; stroke-width: 1.5;" width="64" x="155.5" y="89"/><line style="stroke: #A80036; stroke-width: 1.5;" x1="155.5" x2="219.5" y1="116.6094" y2="116.6094"/><text fill="#000000" font-family="sans-serif" font-size="14" lengthAdjust="spacingAndGlyphs" textLength="44" x="165.5" y="108.5332">INITIAL</text><rect fill="#FEFECE" filter="url(#f11dxmpiwrc988)" height="50" rx="12.5" ry="12.5" style="stroke: #A80036; stroke-width: 1.5;" width="125" x="6" y="217"/><line style="stroke: #A80036; stroke-width: 1.5;" x1="6" x2="131" y1="244.6094" y2="244.6094"/><text fill="#000000" font-family="sans-serif" font-size="14" lengthAdjust="spacingAndGlyphs" textLength="105" x="16" y="236.5332">OPENED_GAME</text><rect fill="#FEFECE" filter="url(#f11dxmpiwrc988)" height="50" rx="12.5" ry="12.5" style="stroke: #A80036; stroke-width: 1.5;" width="58" x="77.5" y="345"/><line style="stroke: #A80036; stroke-width: 1.5;" x1="77.5" x2="135.5" y1="372.6094" y2="372.6094"/><text fill="#000000" font-family="sans-serif" font-size="14" lengthAdjust="spacingAndGlyphs" textLength="38" x="87.5" y="364.5332">FINAL</text><polygon fill="#FEFECE" filter="url(#f11dxmpiwrc988)" points="192.5,473,204.5,485,192.5,497,180.5,485,192.5,473" style="stroke: #A80036; stroke-width: 1.5;"/><ellipse cx="192.5" cy="585" fill="none" filter="url(#f11dxmpiwrc988)" rx="10" ry="10" style="stroke: #000000; stroke-width: 1.0;"/><ellipse cx="193" cy="585.5" fill="#000000" rx="6" ry="6" style="stroke: none; stroke-width: 1.0;"/><!--link *start to INITIAL--><path d="M187.5,28.013 C187.5,40.698 187.5,64.409 187.5,83.57 " fill="none" id="*start-INITIAL" style="stroke: #A80036; stroke-width: 1.0;"/><polygon fill="#A80036" points="187.5,88.84,191.5,79.84,187.5,83.84,183.5,79.84,187.5,88.84" style="stroke: #A80036; stroke-width: 1.0;"/><!--link INITIAL to OPENED_GAME--><path d="M164.556,139.294 C144.636,160.386 115.791,190.927 94.914,213.032 " fill="none" id="INITIAL-OPENED_GAME" style="stroke: #A80036; stroke-width: 1.0;"/><polygon fill="#A80036" points="91.374,216.781,100.4615,212.9839,94.8069,213.1458,94.6451,207.4912,91.374,216.781" style="stroke: #A80036; stroke-width: 1.0;"/><text fill="#000000" font-family="sans-serif" font-size="13" lengthAdjust="spacingAndGlyphs" textLength="28" x="136.5" y="183.4951">Start</text><!--link OPENED_GAME to OPENED_GAME--><path d="M131.33,230.012 C150.75,230.254 166,234.25 166,242 C166,249.023 153.475,252.964 136.672,253.821 " fill="none" id="OPENED_GAME-OPENED_GAME" style="stroke: #A80036; stroke-width: 1.0;"/><polygon fill="#A80036" points="131.33,253.988,140.4513,257.7031,136.3275,253.8308,140.1998,249.7071,131.33,253.988" style="stroke: #A80036; stroke-width: 1.0;"/><text fill="#000000" font-family="sans-serif" font-size="13" lengthAdjust="spacingAndGlyphs" textLength="30" x="172" y="247.4951">Move</text><!--link OPENED_GAME to FINAL--><path d="M37.4424,267.091 C23.687,280.816 12.4428,298.516 21.5,315 C32.3656,334.776 53.8796,348.337 72.5436,356.923 " fill="none" id="OPENED_GAME-FINAL" style="stroke: #A80036; stroke-width: 1.0;"/><polygon fill="#A80036" points="77.2191,358.999,70.6173,351.6904,72.6495,356.9696,67.3702,359.0018,77.2191,358.999" style="stroke: #A80036; stroke-width: 1.0;"/><text fill="#000000" font-family="sans-serif" font-size="13" lengthAdjust="spacingAndGlyphs" textLength="40" x="22.5" y="311.4951">Cancel</text><!--link OPENED_GAME to FINAL--><path d="M75.8268,267.294 C82.0826,288.037 91.0949,317.92 97.7326,339.929 " fill="none" id="OPENED_GAME-FINAL-1" style="stroke: #A80036; stroke-width: 1.0;"/><polygon fill="#A80036" points="99.1957,344.781,100.4256,335.0092,97.7515,339.9941,92.7666,337.32,99.1957,344.781" style="stroke: #A80036; stroke-width: 1.0;"/><text fill="#000000" font-family="sans-serif" font-size="13" lengthAdjust="spacingAndGlyphs" textLength="96" x="91.5" y="311.4951">[jugador perdido]</text><!--link FINAL to Condicion--><path d="M124.949,395.241 C143.331,419.394 170.714,455.374 184.276,473.194 " fill="none" id="FINAL-Condicion" style="stroke: #A80036; stroke-width: 1.0;"/><polygon fill="#A80036" points="187.413,477.315,185.1467,467.7304,184.3854,473.3358,178.78,472.5746,187.413,477.315" style="stroke: #A80036; stroke-width: 1.0;"/><text fill="#000000" font-family="sans-serif" font-size="13" lengthAdjust="spacingAndGlyphs" textLength="43" x="161.5" y="439.4951">resume</text><!--link Condicion to INITIAL--><path d="M197.122,477.427 C202.29,469.637 210.35,456.061 213.5,443 C215.376,435.223 213.596,432.999 213.5,425 C212.389,332.536 218.977,308.876 208.5,217 C205.668,192.16 199.768,164.394 194.941,144.111 " fill="none" id="Condicion-INITIAL" style="stroke: #A80036; stroke-width: 1.0;"/><polygon fill="#A80036" points="193.739,139.122,191.9593,148.8087,194.9106,143.9828,199.7365,146.9341,193.739,139.122" style="stroke: #A80036; stroke-width: 1.0;"/><text fill="#000000" font-family="sans-serif" font-size="13" lengthAdjust="spacingAndGlyphs" textLength="29" x="216.5" y="311.4951">[yes]</text><!--link Condicion to *end--><path d="M192.5,497.2418 C192.5,515.1645 192.5,550.1878 192.5,569.8104 " fill="none" id="Condicion-*end" style="stroke: #A80036; stroke-width: 1.0;"/><polygon fill="#A80036" points="192.5,574.9095,196.5,565.9095,192.5,569.9095,188.5,565.9095,192.5,574.9095" style="stroke: #A80036; stroke-width: 1.0;"/><text fill="#000000" font-family="sans-serif" font-size="13" lengthAdjust="spacingAndGlyphs" textLength="22" x="193.5" y="541.4951">[no]</text><!--
@startuml

[*] -down-> INITIAL
INITIAL -down-> OPENED_GAME : Start
OPENED_GAME - -> OPENED_GAME :Move
OPENED_GAME -down-> FINAL : Cancel
OPENED_GAME - -> FINAL : [jugador perdido]
state " " as Condicion <<choice>>
FINAL - -> Condicion : resume
Condicion - -> INITIAL : [yes]
Condicion - -> [*] : [no]

@enduml

PlantUML version 1.2019.05(Sat Apr 20 18:45:36 CEST 2019)
(GPL source distribution)
Java Runtime: OpenJDK Runtime Environment
JVM: OpenJDK 64-Bit Server VM
Java Version: 1.8.0_222-b10
Operating System: Windows 10
OS Version: 10.0
Default Encoding: windows-1252
Language: es
Country: ES
--></g></svg>