<?xml version="1.0" encoding="UTF-8" standalone="no"?><svg xmlns="http://www.w3.org/2000/svg" xmlns:xlink="http://www.w3.org/1999/xlink" contentScriptType="application/ecmascript" contentStyleType="text/css" height="607px" preserveAspectRatio="none" style="width:392px;height:607px;" version="1.1" viewBox="0 0 392 607" width="392px" zoomAndPan="magnify"><defs><filter height="300%" id="f1lkynz4b8qwxt" width="300%" x="-1" y="-1"><feGaussianBlur result="blurOut" stdDeviation="2.0"/><feColorMatrix in="blurOut" result="blurOut2" type="matrix" values="0 0 0 0 0 0 0 0 0 0 0 0 0 0 0 0 0 0 .4 0"/><feOffset dx="4.0" dy="4.0" in="blurOut2" result="blurOut3"/><feBlend in="SourceGraphic" in2="blurOut3" mode="normal"/></filter></defs><g><!--class Draughts--><rect fill="#FEFECE" filter="url(#f1lkynz4b8qwxt)" height="48" id="Draughts" style="stroke: #A80036; stroke-width: 1.5;" width="83" x="46.5" y="8"/><ellipse cx="61.5" cy="24" fill="#ADD1B2" rx="11" ry="11" style="stroke: #A80036; stroke-width: 1.0;"/><path d="M64.2656,19.875 Q64.4219,19.6563 64.6094,19.5469 Q64.7969,19.4375 65.0156,19.4375 Q65.3906,19.4375 65.625,19.6953 Q65.8594,19.9531 65.8594,20.5625 L65.8594,22.0156 Q65.8594,22.625 65.625,22.8906 Q65.3906,23.1563 65.0156,23.1563 Q64.6719,23.1563 64.4688,22.9531 Q64.2656,22.7656 64.1563,22.25 Q64.1094,21.8906 63.9219,21.7031 Q63.5938,21.3281 62.9844,21.1094 Q62.375,20.8906 61.75,20.8906 Q60.9844,20.8906 60.3516,21.2188 Q59.7188,21.5469 59.2266,22.2969 Q58.7344,23.0469 58.7344,24.0781 L58.7344,25.1719 Q58.7344,26.4063 59.625,27.2266 Q60.5156,28.0469 62.1094,28.0469 Q63.0469,28.0469 63.7031,27.7969 Q64.0938,27.6406 64.5156,27.2031 Q64.7813,26.9375 64.9297,26.8594 Q65.0781,26.7813 65.2813,26.7813 Q65.6094,26.7813 65.8672,27.0391 Q66.125,27.2969 66.125,27.6406 Q66.125,27.9844 65.7813,28.3906 Q65.2813,28.9688 64.4844,29.2969 Q63.4063,29.75 62.1094,29.75 Q60.5938,29.75 59.3906,29.125 Q58.4063,28.625 57.7188,27.5547 Q57.0313,26.4844 57.0313,25.2031 L57.0313,24.0469 Q57.0313,22.7188 57.6484,21.5703 Q58.2656,20.4219 59.3594,19.8047 Q60.4531,19.1875 61.6875,19.1875 Q62.4219,19.1875 63.0703,19.3516 Q63.7188,19.5156 64.2656,19.875 Z "/><text fill="#000000" font-family="sans-serif" font-size="12" lengthAdjust="spacingAndGlyphs" textLength="51" x="75.5" y="28.9102">Draughts</text><line style="stroke: #A80036; stroke-width: 1.5;" x1="47.5" x2="128.5" y1="40" y2="40"/><line style="stroke: #A80036; stroke-width: 1.5;" x1="47.5" x2="128.5" y1="48" y2="48"/><!--class Board--><rect fill="#FEFECE" filter="url(#f1lkynz4b8qwxt)" height="48" id="Board" style="stroke: #A80036; stroke-width: 1.5;" width="65" x="12.5" y="224"/><ellipse cx="27.5" cy="240" fill="#ADD1B2" rx="11" ry="11" style="stroke: #A80036; stroke-width: 1.0;"/><path d="M30.2656,235.875 Q30.4219,235.6563 30.6094,235.5469 Q30.7969,235.4375 31.0156,235.4375 Q31.3906,235.4375 31.625,235.6953 Q31.8594,235.9531 31.8594,236.5625 L31.8594,238.0156 Q31.8594,238.625 31.625,238.8906 Q31.3906,239.1563 31.0156,239.1563 Q30.6719,239.1563 30.4688,238.9531 Q30.2656,238.7656 30.1563,238.25 Q30.1094,237.8906 29.9219,237.7031 Q29.5938,237.3281 28.9844,237.1094 Q28.375,236.8906 27.75,236.8906 Q26.9844,236.8906 26.3516,237.2188 Q25.7188,237.5469 25.2266,238.2969 Q24.7344,239.0469 24.7344,240.0781 L24.7344,241.1719 Q24.7344,242.4063 25.625,243.2266 Q26.5156,244.0469 28.1094,244.0469 Q29.0469,244.0469 29.7031,243.7969 Q30.0938,243.6406 30.5156,243.2031 Q30.7813,242.9375 30.9297,242.8594 Q31.0781,242.7813 31.2813,242.7813 Q31.6094,242.7813 31.8672,243.0391 Q32.125,243.2969 32.125,243.6406 Q32.125,243.9844 31.7813,244.3906 Q31.2813,244.9688 30.4844,245.2969 Q29.4063,245.75 28.1094,245.75 Q26.5938,245.75 25.3906,245.125 Q24.4063,244.625 23.7188,243.5547 Q23.0313,242.4844 23.0313,241.2031 L23.0313,240.0469 Q23.0313,238.7188 23.6484,237.5703 Q24.2656,236.4219 25.3594,235.8047 Q26.4531,235.1875 27.6875,235.1875 Q28.4219,235.1875 29.0703,235.3516 Q29.7188,235.5156 30.2656,235.875 Z "/><text fill="#000000" font-family="sans-serif" font-size="12" lengthAdjust="spacingAndGlyphs" textLength="33" x="41.5" y="244.9102">Board</text><line style="stroke: #A80036; stroke-width: 1.5;" x1="13.5" x2="76.5" y1="256" y2="256"/><line style="stroke: #A80036; stroke-width: 1.5;" x1="13.5" x2="76.5" y1="264" y2="264"/><!--class Player--><rect fill="#FEFECE" filter="url(#f1lkynz4b8qwxt)" height="48" id="Player" style="stroke: #A80036; stroke-width: 1.5;" width="66" x="98" y="116"/><ellipse cx="113" cy="132" fill="#ADD1B2" rx="11" ry="11" style="stroke: #A80036; stroke-width: 1.0;"/><path d="M115.7656,127.875 Q115.9219,127.6563 116.1094,127.5469 Q116.2969,127.4375 116.5156,127.4375 Q116.8906,127.4375 117.125,127.6953 Q117.3594,127.9531 117.3594,128.5625 L117.3594,130.0156 Q117.3594,130.625 117.125,130.8906 Q116.8906,131.1563 116.5156,131.1563 Q116.1719,131.1563 115.9688,130.9531 Q115.7656,130.7656 115.6563,130.25 Q115.6094,129.8906 115.4219,129.7031 Q115.0938,129.3281 114.4844,129.1094 Q113.875,128.8906 113.25,128.8906 Q112.4844,128.8906 111.8516,129.2188 Q111.2188,129.5469 110.7266,130.2969 Q110.2344,131.0469 110.2344,132.0781 L110.2344,133.1719 Q110.2344,134.4063 111.125,135.2266 Q112.0156,136.0469 113.6094,136.0469 Q114.5469,136.0469 115.2031,135.7969 Q115.5938,135.6406 116.0156,135.2031 Q116.2813,134.9375 116.4297,134.8594 Q116.5781,134.7813 116.7813,134.7813 Q117.1094,134.7813 117.3672,135.0391 Q117.625,135.2969 117.625,135.6406 Q117.625,135.9844 117.2813,136.3906 Q116.7813,136.9688 115.9844,137.2969 Q114.9063,137.75 113.6094,137.75 Q112.0938,137.75 110.8906,137.125 Q109.9063,136.625 109.2188,135.5547 Q108.5313,134.4844 108.5313,133.2031 L108.5313,132.0469 Q108.5313,130.7188 109.1484,129.5703 Q109.7656,128.4219 110.8594,127.8047 Q111.9531,127.1875 113.1875,127.1875 Q113.9219,127.1875 114.5703,127.3516 Q115.2188,127.5156 115.7656,127.875 Z "/><text fill="#000000" font-family="sans-serif" font-size="12" lengthAdjust="spacingAndGlyphs" textLength="34" x="127" y="136.9102">Player</text><line style="stroke: #A80036; stroke-width: 1.5;" x1="99" x2="163" y1="148" y2="148"/><line style="stroke: #A80036; stroke-width: 1.5;" x1="99" x2="163" y1="156" y2="156"/><!--class Men--><rect fill="#FEFECE" filter="url(#f1lkynz4b8qwxt)" height="48" id="Men" style="stroke: #A80036; stroke-width: 1.5;" width="55" x="220.5" y="548"/><ellipse cx="235.5" cy="564" fill="#ADD1B2" rx="11" ry="11" style="stroke: #A80036; stroke-width: 1.0;"/><path d="M238.2656,559.875 Q238.4219,559.6563 238.6094,559.5469 Q238.7969,559.4375 239.0156,559.4375 Q239.3906,559.4375 239.625,559.6953 Q239.8594,559.9531 239.8594,560.5625 L239.8594,562.0156 Q239.8594,562.625 239.625,562.8906 Q239.3906,563.1563 239.0156,563.1563 Q238.6719,563.1563 238.4688,562.9531 Q238.2656,562.7656 238.1563,562.25 Q238.1094,561.8906 237.9219,561.7031 Q237.5938,561.3281 236.9844,561.1094 Q236.375,560.8906 235.75,560.8906 Q234.9844,560.8906 234.3516,561.2188 Q233.7188,561.5469 233.2266,562.2969 Q232.7344,563.0469 232.7344,564.0781 L232.7344,565.1719 Q232.7344,566.4063 233.625,567.2266 Q234.5156,568.0469 236.1094,568.0469 Q237.0469,568.0469 237.7031,567.7969 Q238.0938,567.6406 238.5156,567.2031 Q238.7813,566.9375 238.9297,566.8594 Q239.0781,566.7813 239.2813,566.7813 Q239.6094,566.7813 239.8672,567.0391 Q240.125,567.2969 240.125,567.6406 Q240.125,567.9844 239.7813,568.3906 Q239.2813,568.9688 238.4844,569.2969 Q237.4063,569.75 236.1094,569.75 Q234.5938,569.75 233.3906,569.125 Q232.4063,568.625 231.7188,567.5547 Q231.0313,566.4844 231.0313,565.2031 L231.0313,564.0469 Q231.0313,562.7188 231.6484,561.5703 Q232.2656,560.4219 233.3594,559.8047 Q234.4531,559.1875 235.6875,559.1875 Q236.4219,559.1875 237.0703,559.3516 Q237.7188,559.5156 238.2656,559.875 Z "/><text fill="#000000" font-family="sans-serif" font-size="12" lengthAdjust="spacingAndGlyphs" textLength="23" x="249.5" y="568.9102">Men</text><line style="stroke: #A80036; stroke-width: 1.5;" x1="221.5" x2="274.5" y1="580" y2="580"/><line style="stroke: #A80036; stroke-width: 1.5;" x1="221.5" x2="274.5" y1="588" y2="588"/><!--class King--><rect fill="#FEFECE" filter="url(#f1lkynz4b8qwxt)" height="48" id="King" style="stroke: #A80036; stroke-width: 1.5;" width="57" x="324.5" y="548"/><ellipse cx="339.5" cy="564" fill="#ADD1B2" rx="11" ry="11" style="stroke: #A80036; stroke-width: 1.0;"/><path d="M342.2656,559.875 Q342.4219,559.6563 342.6094,559.5469 Q342.7969,559.4375 343.0156,559.4375 Q343.3906,559.4375 343.625,559.6953 Q343.8594,559.9531 343.8594,560.5625 L343.8594,562.0156 Q343.8594,562.625 343.625,562.8906 Q343.3906,563.1563 343.0156,563.1563 Q342.6719,563.1563 342.4688,562.9531 Q342.2656,562.7656 342.1563,562.25 Q342.1094,561.8906 341.9219,561.7031 Q341.5938,561.3281 340.9844,561.1094 Q340.375,560.8906 339.75,560.8906 Q338.9844,560.8906 338.3516,561.2188 Q337.7188,561.5469 337.2266,562.2969 Q336.7344,563.0469 336.7344,564.0781 L336.7344,565.1719 Q336.7344,566.4063 337.625,567.2266 Q338.5156,568.0469 340.1094,568.0469 Q341.0469,568.0469 341.7031,567.7969 Q342.0938,567.6406 342.5156,567.2031 Q342.7813,566.9375 342.9297,566.8594 Q343.0781,566.7813 343.2813,566.7813 Q343.6094,566.7813 343.8672,567.0391 Q344.125,567.2969 344.125,567.6406 Q344.125,567.9844 343.7813,568.3906 Q343.2813,568.9688 342.4844,569.2969 Q341.4063,569.75 340.1094,569.75 Q338.5938,569.75 337.3906,569.125 Q336.4063,568.625 335.7188,567.5547 Q335.0313,566.4844 335.0313,565.2031 L335.0313,564.0469 Q335.0313,562.7188 335.6484,561.5703 Q336.2656,560.4219 337.3594,559.8047 Q338.4531,559.1875 339.6875,559.1875 Q340.4219,559.1875 341.0703,559.3516 Q341.7188,559.5156 342.2656,559.875 Z "/><text fill="#000000" font-family="sans-serif" font-size="12" lengthAdjust="spacingAndGlyphs" textLength="25" x="353.5" y="568.9102">King</text><line style="stroke: #A80036; stroke-width: 1.5;" x1="325.5" x2="380.5" y1="580" y2="580"/><line style="stroke: #A80036; stroke-width: 1.5;" x1="325.5" x2="380.5" y1="588" y2="588"/><!--class Color--><rect fill="#FEFECE" filter="url(#f1lkynz4b8qwxt)" height="48" id="Color" style="stroke: #A80036; stroke-width: 1.5;" width="62" x="95" y="548"/><ellipse cx="110" cy="564" fill="#ADD1B2" rx="11" ry="11" style="stroke: #A80036; stroke-width: 1.0;"/><path d="M112.7656,559.875 Q112.9219,559.6563 113.1094,559.5469 Q113.2969,559.4375 113.5156,559.4375 Q113.8906,559.4375 114.125,559.6953 Q114.3594,559.9531 114.3594,560.5625 L114.3594,562.0156 Q114.3594,562.625 114.125,562.8906 Q113.8906,563.1563 113.5156,563.1563 Q113.1719,563.1563 112.9688,562.9531 Q112.7656,562.7656 112.6563,562.25 Q112.6094,561.8906 112.4219,561.7031 Q112.0938,561.3281 111.4844,561.1094 Q110.875,560.8906 110.25,560.8906 Q109.4844,560.8906 108.8516,561.2188 Q108.2188,561.5469 107.7266,562.2969 Q107.2344,563.0469 107.2344,564.0781 L107.2344,565.1719 Q107.2344,566.4063 108.125,567.2266 Q109.0156,568.0469 110.6094,568.0469 Q111.5469,568.0469 112.2031,567.7969 Q112.5938,567.6406 113.0156,567.2031 Q113.2813,566.9375 113.4297,566.8594 Q113.5781,566.7813 113.7813,566.7813 Q114.1094,566.7813 114.3672,567.0391 Q114.625,567.2969 114.625,567.6406 Q114.625,567.9844 114.2813,568.3906 Q113.7813,568.9688 112.9844,569.2969 Q111.9063,569.75 110.6094,569.75 Q109.0938,569.75 107.8906,569.125 Q106.9063,568.625 106.2188,567.5547 Q105.5313,566.4844 105.5313,565.2031 L105.5313,564.0469 Q105.5313,562.7188 106.1484,561.5703 Q106.7656,560.4219 107.8594,559.8047 Q108.9531,559.1875 110.1875,559.1875 Q110.9219,559.1875 111.5703,559.3516 Q112.2188,559.5156 112.7656,559.875 Z "/><text fill="#000000" font-family="sans-serif" font-size="12" lengthAdjust="spacingAndGlyphs" textLength="30" x="124" y="568.9102">Color</text><line style="stroke: #A80036; stroke-width: 1.5;" x1="96" x2="156" y1="580" y2="580"/><line style="stroke: #A80036; stroke-width: 1.5;" x1="96" x2="156" y1="588" y2="588"/><!--class Square--><rect fill="#FEFECE" filter="url(#f1lkynz4b8qwxt)" height="48" id="Square" style="stroke: #A80036; stroke-width: 1.5;" width="72" x="6" y="332"/><ellipse cx="21" cy="348" fill="#ADD1B2" rx="11" ry="11" style="stroke: #A80036; stroke-width: 1.0;"/><path d="M23.7656,343.875 Q23.9219,343.6563 24.1094,343.5469 Q24.2969,343.4375 24.5156,343.4375 Q24.8906,343.4375 25.125,343.6953 Q25.3594,343.9531 25.3594,344.5625 L25.3594,346.0156 Q25.3594,346.625 25.125,346.8906 Q24.8906,347.1563 24.5156,347.1563 Q24.1719,347.1563 23.9688,346.9531 Q23.7656,346.7656 23.6563,346.25 Q23.6094,345.8906 23.4219,345.7031 Q23.0938,345.3281 22.4844,345.1094 Q21.875,344.8906 21.25,344.8906 Q20.4844,344.8906 19.8516,345.2188 Q19.2188,345.5469 18.7266,346.2969 Q18.2344,347.0469 18.2344,348.0781 L18.2344,349.1719 Q18.2344,350.4063 19.125,351.2266 Q20.0156,352.0469 21.6094,352.0469 Q22.5469,352.0469 23.2031,351.7969 Q23.5938,351.6406 24.0156,351.2031 Q24.2813,350.9375 24.4297,350.8594 Q24.5781,350.7813 24.7813,350.7813 Q25.1094,350.7813 25.3672,351.0391 Q25.625,351.2969 25.625,351.6406 Q25.625,351.9844 25.2813,352.3906 Q24.7813,352.9688 23.9844,353.2969 Q22.9063,353.75 21.6094,353.75 Q20.0938,353.75 18.8906,353.125 Q17.9063,352.625 17.2188,351.5547 Q16.5313,350.4844 16.5313,349.2031 L16.5313,348.0469 Q16.5313,346.7188 17.1484,345.5703 Q17.7656,344.4219 18.8594,343.8047 Q19.9531,343.1875 21.1875,343.1875 Q21.9219,343.1875 22.5703,343.3516 Q23.2188,343.5156 23.7656,343.875 Z "/><text fill="#000000" font-family="sans-serif" font-size="12" lengthAdjust="spacingAndGlyphs" textLength="40" x="35" y="352.9102">Square</text><line style="stroke: #A80036; stroke-width: 1.5;" x1="7" x2="77" y1="364" y2="364"/><line style="stroke: #A80036; stroke-width: 1.5;" x1="7" x2="77" y1="372" y2="372"/><!--class Piece--><rect fill="#FEFECE" filter="url(#f1lkynz4b8qwxt)" height="48" id="Piece" style="stroke: #A80036; stroke-width: 1.5;" width="63" x="179.5" y="440"/><ellipse cx="194.5" cy="456" fill="#ADD1B2" rx="11" ry="11" style="stroke: #A80036; stroke-width: 1.0;"/><path d="M197.2656,451.875 Q197.4219,451.6563 197.6094,451.5469 Q197.7969,451.4375 198.0156,451.4375 Q198.3906,451.4375 198.625,451.6953 Q198.8594,451.9531 198.8594,452.5625 L198.8594,454.0156 Q198.8594,454.625 198.625,454.8906 Q198.3906,455.1563 198.0156,455.1563 Q197.6719,455.1563 197.4688,454.9531 Q197.2656,454.7656 197.1563,454.25 Q197.1094,453.8906 196.9219,453.7031 Q196.5938,453.3281 195.9844,453.1094 Q195.375,452.8906 194.75,452.8906 Q193.9844,452.8906 193.3516,453.2188 Q192.7188,453.5469 192.2266,454.2969 Q191.7344,455.0469 191.7344,456.0781 L191.7344,457.1719 Q191.7344,458.4063 192.625,459.2266 Q193.5156,460.0469 195.1094,460.0469 Q196.0469,460.0469 196.7031,459.7969 Q197.0938,459.6406 197.5156,459.2031 Q197.7813,458.9375 197.9297,458.8594 Q198.0781,458.7813 198.2813,458.7813 Q198.6094,458.7813 198.8672,459.0391 Q199.125,459.2969 199.125,459.6406 Q199.125,459.9844 198.7813,460.3906 Q198.2813,460.9688 197.4844,461.2969 Q196.4063,461.75 195.1094,461.75 Q193.5938,461.75 192.3906,461.125 Q191.4063,460.625 190.7188,459.5547 Q190.0313,458.4844 190.0313,457.2031 L190.0313,456.0469 Q190.0313,454.7188 190.6484,453.5703 Q191.2656,452.4219 192.3594,451.8047 Q193.4531,451.1875 194.6875,451.1875 Q195.4219,451.1875 196.0703,451.3516 Q196.7188,451.5156 197.2656,451.875 Z "/><text fill="#000000" font-family="sans-serif" font-size="12" lengthAdjust="spacingAndGlyphs" textLength="31" x="208.5" y="460.9102">Piece</text><line style="stroke: #A80036; stroke-width: 1.5;" x1="180.5" x2="241.5" y1="472" y2="472"/><line style="stroke: #A80036; stroke-width: 1.5;" x1="180.5" x2="241.5" y1="480" y2="480"/><!--link Draughts to Board--><path d="M80.7145,69.258 C72.7875,108.709 60.1896,171.405 52.269,210.824 " fill="none" id="Draughts-Board" style="stroke: #A80036; stroke-width: 1.0;"/><polygon fill="#A80036" points="49.6778,223.72,55.3727,215.6845,50.663,218.818,47.5295,214.1083,49.6778,223.72" style="stroke: #A80036; stroke-width: 1.0;"/><line style="stroke: #A80036; stroke-width: 1.0;" x1="50.663" x2="52.2389" y1="218.818" y2="210.9745"/><polygon fill="#A80036" points="83.3164,56.309,78.2126,61.4033,80.952,68.0738,86.0558,62.9795,83.3164,56.309" style="stroke: #A80036; stroke-width: 1.0;"/><!--link Draughts to Player--><path d="M102.361,68.402 C106.949,79.712 112.027,92.229 116.617,103.543 " fill="none" id="Draughts-Player" style="stroke: #A80036; stroke-width: 1.0;"/><polygon fill="#A80036" points="121.539,115.678,121.8624,105.8345,119.6594,111.0447,114.4492,108.8418,121.539,115.678" style="stroke: #A80036; stroke-width: 1.0;"/><line style="stroke: #A80036; stroke-width: 1.0;" x1="119.6594" x2="116.6525" y1="111.0447" y2="103.6315"/><polygon fill="#A80036" points="97.3304,56,95.8785,63.0634,101.8402,67.1203,103.2921,60.0569,97.3304,56" style="stroke: #A80036; stroke-width: 1.0;"/><text fill="#000000" font-family="sans-serif" font-size="13" lengthAdjust="spacingAndGlyphs" textLength="7" x="111.3798" y="105.3375">2</text><!--link Player to Men--><path d="M151.542,175.637 C182.344,229.804 239.112,338.854 260,440 C266.529,471.617 262.189,508.26 256.992,534.7383 " fill="none" id="Player-Men" style="stroke: #A80036; stroke-width: 1.0;"/><polygon fill="#A80036" points="254.25,547.5777,260.0419,539.6119,255.2945,542.688,252.2184,537.9407,254.25,547.5777" style="stroke: #A80036; stroke-width: 1.0;"/><line style="stroke: #A80036; stroke-width: 1.0;" x1="255.2945" x2="256.9655" y1="542.688" y2="534.8645"/><polygon fill="#A80036" points="145.025,164.316,144.5516,171.5115,151.0116,174.716,151.485,167.5205,145.025,164.316" style="stroke: #A80036; stroke-width: 1.0;"/><text fill="#000000" font-family="sans-serif" font-size="13" lengthAdjust="spacingAndGlyphs" textLength="14" x="240.0672" y="537.2127">12</text><!--link Player to King--><path d="M169.94,172.955 C185.72,187.342 203.199,205.288 216,224 C285.819,326.059 327.697,468.888 344.477,534.9124 " fill="none" id="Player-King" style="stroke: #A80036; stroke-width: 1.0;"/><polygon fill="#A80036" points="347.677,547.7932,349.3886,538.0942,346.4713,542.9408,341.6247,540.0234,347.677,547.7932" style="stroke: #A80036; stroke-width: 1.0;"/><line style="stroke: #A80036; stroke-width: 1.0;" x1="346.4713" x2="344.542" y1="542.9408" y2="535.1768"/><polygon fill="#A80036" points="159.882,164.042,161.7189,171.0152,168.8623,172.0016,167.0253,165.0284,159.882,164.042" style="stroke: #A80036; stroke-width: 1.0;"/><text fill="#000000" font-family="sans-serif" font-size="13" lengthAdjust="spacingAndGlyphs" textLength="7" x="338.4161" y="537.0804">2</text><!--link Player to Board--><path d="M112.339,164 C99.1322,180.279 81.3576,202.187 67.3863,219.408 " fill="none" id="Player-Board" style="stroke: #A80036; stroke-width: 1.0;"/><polygon fill="#A80036" points="63.9213,223.678,72.6977,219.2088,67.0714,219.7951,66.4851,214.1687,63.9213,223.678" style="stroke: #A80036; stroke-width: 1.0;"/><!--link Player to Color--><path d="M130.731,164.119 C129.882,237.177 127.256,462.954 126.329,542.7269 " fill="none" id="Player-Color" style="stroke: #A80036; stroke-width: 1.0;"/><polygon fill="#A80036" points="126.27,547.767,130.3744,538.8141,126.3282,542.7673,122.375,538.7211,126.27,547.767" style="stroke: #A80036; stroke-width: 1.0;"/><!--link Board to Square--><path d="M43.9716,285.338 C43.6696,296.006 43.3393,307.677 43.0369,318.364 " fill="none" id="Board-Square" style="stroke: #A80036; stroke-width: 1.0;"/><polygon fill="#A80036" points="42.66,331.678,46.9126,322.7946,42.8012,326.68,38.9158,322.5686,42.66,331.678" style="stroke: #A80036; stroke-width: 1.0;"/><line style="stroke: #A80036; stroke-width: 1.0;" x1="42.8012" x2="43.0279" y1="326.68" y2="318.6835"/><polygon fill="#FFFFFF" points="44.349,272,40.1805,277.8842,44.0088,283.9952,48.1773,278.111,44.349,272" style="stroke: #A80036; stroke-width: 1.0;"/><text fill="#000000" font-family="sans-serif" font-size="13" lengthAdjust="spacingAndGlyphs" textLength="21" x="19.2615" y="321.3375">8x8</text><!--link Square to Color--><path d="M56.0085,392.688 C71.573,432.341 96.5523,495.978 112.081,535.539 " fill="none" id="Square-Color" style="stroke: #A80036; stroke-width: 1.0;"/><polygon fill="#A80036" points="116.862,547.7196,117.2969,537.8804,115.0351,543.0653,109.8501,540.8034,116.862,547.7196" style="stroke: #A80036; stroke-width: 1.0;"/><line style="stroke: #A80036; stroke-width: 1.0;" x1="115.0351" x2="112.1115" y1="543.0653" y2="535.6184"/><polygon fill="#A80036" points="51.1494,380.309,49.6183,387.3557,55.534,391.4793,57.0651,384.4326,51.1494,380.309" style="stroke: #A80036; stroke-width: 1.0;"/><!--link Square to Piece--><path d="M78.2547,379.74 C106.794,397.64 146.376,422.466 174.88,440.345 " fill="none" id="Square-Piece" style="stroke: #A80036; stroke-width: 1.0;"/><polygon fill="#A80036" points="179.356,443.153,173.8576,434.9818,175.1204,440.4959,169.6063,441.7588,179.356,443.153" style="stroke: #A80036; stroke-width: 1.0;"/><text fill="#000000" font-family="sans-serif" font-size="13" lengthAdjust="spacingAndGlyphs" textLength="22" x="149.4935" y="435.3619">0..1</text><!--link Piece to Men--><path d="M225.68,507.0569 C230.508,520.8891 235.7,535.7609 239.859,547.6784 " fill="none" id="Piece-Men" style="stroke: #A80036; stroke-width: 1.0;"/><polygon fill="none" points="219.011,509.1901,219.028,488,232.229,504.5762,219.011,509.1901" style="stroke: #A80036; stroke-width: 1.0;"/><!--link Piece to King--><path d="M258.058,500.1281 C279.917,516.4452 305.205,535.3222 324.184,549.4895 " fill="none" id="Piece-King" style="stroke: #A80036; stroke-width: 1.0;"/><polygon fill="none" points="253.652,505.5738,241.812,488,262.026,494.355,253.652,505.5738" style="stroke: #A80036; stroke-width: 1.0;"/><!--link Piece to Color--><path d="M184.101,498.5449 C174.184,510.9116 162.952,524.9193 153.024,537.2997 " fill="none" id="Piece-Color" style="stroke: #A80036; stroke-width: 1.0;"/><polygon fill="#A80036" points="144.701,547.6784,153.4517,543.159,147.8288,543.7775,147.2103,538.1546,144.701,547.6784" style="stroke: #A80036; stroke-width: 1.0;"/><line style="stroke: #A80036; stroke-width: 1.0;" x1="147.8288" x2="152.834" y1="543.7775" y2="537.5365"/><polygon fill="#A80036" points="192.556,488,185.6818,490.1784,185.0486,497.3616,191.9229,495.1833,192.556,488" style="stroke: #A80036; stroke-width: 1.0;"/><!--
@startuml
class Draughts
Draughts *-down-> Board
Draughts *-down-> "2" Player
class Player
Player *-down-> "12" Men
Player *-down-> "2" King
Player - -> Board
Player - -> Color
class Board
Board o-down-> "8x8" Square
class Square
Square *-down> Color
Square - -> "0..1" Piece
class Piece
Piece <|-down- Men
Piece <|-down- King
Piece *-down-> Color
class Men
class King
class Color
@enduml

PlantUML version 1.2019.05(Sat Apr 20 18:45:36 CEST 2019)
(GPL source distribution)
Java Runtime: OpenJDK Runtime Environment
JVM: OpenJDK 64-Bit Server VM
Java Version: 1.8.0_222-b10
Operating System: Windows 10
OS Version: 10.0
Default Encoding: windows-1252
Language: es
Country: ES
--></g></svg>